SplineFontDB: 3.2
FontName: AnalysisSans
FullName: Analysis Sans
FamilyName: Analysis Sans
Weight: Regular
Copyright: Copyright (c) 2024, Bastien
UComments: "2024-12-25: Created with FontForge (http://fontforge.org)"
Version: 001.000
ItalicAngle: 0
UnderlinePosition: -102
UnderlineWidth: 51
Ascent: 800
Descent: 224
InvalidEm: 0
LayerCount: 2
Layer: 0 0 "Arri+AOgA-re" 1
Layer: 1 0 "Avant" 0
XUID: [1021 760 1580941675 4706664]
FSType: 0
OS2Version: 0
OS2_WeightWidthSlopeOnly: 0
OS2_UseTypoMetrics: 1
CreationTime: 1735138560
ModificationTime: 1735226259
PfmFamily: 17
TTFWeight: 400
TTFWidth: 5
LineGap: 192
VLineGap: 0
OS2TypoAscent: 800
OS2TypoAOffset: 0
OS2TypoDescent: -224
OS2TypoDOffset: 0
OS2TypoLinegap: 192
OS2WinAscent: 800
OS2WinAOffset: 0
OS2WinDescent: 224
OS2WinDOffset: 0
HheadAscent: 800
HheadAOffset: 0
HheadDescent: 224
HheadDOffset: 0
OS2Vendor: 'PfEd'
Lookup: 258 0 0 "Kern Latin" { "Kern Latin-Latin" [153,0,2] } ['kern' ('DFLT' <'dflt' > 'latn' <'dflt' > ) ]
MarkAttachClasses: 1
DEI: 91125
KernClass2: 17 10 "Kern Latin-Latin"
 50 A Agrave Aacute Acircumflex Atilde Adieresis Aring
 1 C
 1 D
 3 F P
 46 O Q Ograve Oacute Ocircumflex Otilde Odieresis
 3 K R
 1 T
 1 V
 50 a agrave aacute acircumflex atilde adieresis aring
 37 e egrave eacute ecircumflex edieresis
 1 f
 1 g
 44 o ograve oacute ocircumflex otilde odieresis
 11 b h m n p s
 1 z
 1 r
 50 A Agrave Aacute Acircumflex Atilde Adieresis Aring
 48 C O Q Ograve Oacute Ocircumflex Otilde Odieresis
 3 T V
 37 e egrave eacute ecircumflex edieresis
 1 g
 44 o ograve oacute ocircumflex otilde odieresis
 3 v w
 18 y yacute ydieresis
 50 a agrave aacute acircumflex atilde adieresis aring

StartChar: A
Encoding: 65 65 0
Width: 615
VWidth: 1048
Flags: W
HStem: 0 21G<22 100.74 506.923 585> 184 62<149 480> 704 20G<262.177 369.133>
VStem: 513 72<0 23.3767>
AnchorPoint: "AccentCenter" 315 880 basechar 0
LayerCount: 2
Fore
SplineSet
149 246 m 1
 480 246 l 1
 480 184 l 1
 149 184 l 1
 149 246 l 1
363 724 m 1
 585 0 l 1
 513 0 l 1
 293 724 l 1
 363 724 l 1
269 724 m 1
 338 724 l 1
 94 0 l 1
 22 0 l 1
 269 724 l 1
EndSplineSet
Validated: 5
Colour: ff0000
EndChar

StartChar: B
Encoding: 66 66 1
Width: 611
VWidth: 1048
Flags: W
HStem: 0 61<166 417.469> 355 62<166 409.151> 663 61<166 404.281>
VStem: 92 74<61 355 417 663> 456 74<462.484 616.446> 481 74<123.719 287.511>
LayerCount: 2
Fore
SplineSet
166 663 m 1xf8
 166 417 l 1
 323 417 l 2
 406 417 456 455 456 545 c 0
 456 627 394 663 317 663 c 2
 166 663 l 1xf8
166 355 m 1
 166 61 l 1
 334 61 l 2
 417 61 481 109 481 205 c 0xf4
 481 305 410 355 317 355 c 2
 166 355 l 1
92 0 m 1
 92 724 l 1
 319 724 l 2
 443 724 530 650 530 544 c 0xf8
 530 449 469 403 420 383 c 1
 505 360 555 297 555 200 c 0
 555 60 450 0 334 0 c 2
 92 0 l 1
EndSplineSet
Validated: 1
EndChar

StartChar: C
Encoding: 67 67 2
Width: 622
VWidth: 1048
Flags: W
HStem: -8 61<264.735 461.625> 670 61<272.195 467.365>
VStem: 64 74<213.072 510.305>
LayerCount: 2
Fore
SplineSet
352 -8 m 5
 172 -8 64 157 64 369 c 1
 64 611 212 731 359 731 c 1
 461 731 504 708 560 658 c 1
 517 610 l 1
 475.897326023 654 426 670 361 670 c 1
 237 670 138 560 138 369 c 1
 138 169 222 53 352 53 c 1
 405 53 476 66 531 122 c 1
 572 76 l 1
 499 13 425 -8 352 -8 c 5
EndSplineSet
Validated: 1
EndChar

StartChar: D
Encoding: 68 68 3
Width: 643
VWidth: 1048
Flags: W
HStem: 1 61<137 359.127> 663 61<143 360.69>
VStem: 137 28<1 62 663 724> 506 73<227.289 502.99>
LayerCount: 2
Fore
SplineSet
143 724 m 29
 252 724 l 5
 466 724 579 575 579 370 c 4
 579 147 465 1 248 1 c 5
 137 1 l 29
 137 62 l 29
 250 62 l 5
 390 62 506 147 506 370 c 4
 506 575 389 663 252 663 c 5
 143 663 l 29
 143 724 l 29
92 724 m 5
 165 724 l 5
 165 1 l 5
 92 1 l 5
 92 724 l 5
EndSplineSet
Validated: 5
EndChar

StartChar: E
Encoding: 69 69 4
Width: 597
VWidth: 1048
Flags: W
HStem: 0 61<166 533> 350 66<165 455> 663 61<166 533>
VStem: 165 1<350 416>
AnchorPoint: "AccentCenter" 342 880 basechar 0
LayerCount: 2
Fore
SplineSet
165 416 m 1
 455 416 l 1
 455 350 l 1
 165 350 l 1
 165 416 l 1
166 61 m 1
 533 61 l 1
 533 0 l 1
 166 0 l 1
 166 61 l 1
166 724 m 1
 533 724 l 1
 533 663 l 1
 166 663 l 1
 166 724 l 1
92 724 m 1
 166 724 l 1
 166 0 l 1
 92 0 l 1
 92 724 l 1
EndSplineSet
Validated: 5
EndChar

StartChar: F
Encoding: 70 70 5
Width: 597
VWidth: 1048
Flags: W
HStem: 0 21G<92 165> 354 66<149 462> 663 61<129 540>
VStem: 92 73<0 354 420 663> 129 36<663 724> 149 16<354 420>
LayerCount: 2
Fore
SplineSet
149 420 m 1xe4
 462 420 l 1
 462 354 l 1
 149 354 l 1
 149 420 l 1xe4
129 724 m 1xe8
 540 724 l 1
 540 663 l 1
 129 663 l 1
 129 724 l 1xe8
92 724 m 1xf0
 165 724 l 1xe8
 165 0 l 1
 92 0 l 1
 92 724 l 1xf0
EndSplineSet
Validated: 5
Colour: ff0000
EndChar

StartChar: G
Encoding: 71 71 6
Width: 646
VWidth: 1048
Flags: W
HStem: -8 61<262.031 447.78> 349 62<344 507> 670 62<254.256 447.956>
VStem: 68 74<203.789 524.539> 507 75<99.2796 349>
LayerCount: 2
Fore
SplineSet
582 104 m 1
 549 54 471 -8 350 -8 c 1
 222 -8 68 77 68 367 c 1
 68 627 207 732 342 732 c 1
 444 732 504 703 556 646 c 1
 503 602 l 5
 466.7734375 650 414 670 342 670 c 1
 229 670 142 578 142 367 c 1
 142 129 244 53 352 53 c 1
 412 53 473 76 507 122 c 1
 507 349 l 1
 344 349 l 25
 344 411 l 25
 582 411 l 1
 582 104 l 1
EndSplineSet
Validated: 1
EndChar

StartChar: H
Encoding: 72 72 7
Width: 647
VWidth: 1048
Flags: W
HStem: 0 21G<92 165 481 555> 354 66<129 518> 704 20G<92 165 481 555>
VStem: 92 73<0 354 420 724> 129 36<354 420> 481 74<0 354 420 724> 481 37<354 420>
LayerCount: 2
Fore
SplineSet
481 724 m 1xe4
 555 724 l 1
 555 0 l 1
 481 0 l 1
 481 724 l 1xe4
129 420 m 5xea
 518 420 l 1
 518 354 l 1
 129 354 l 5
 129 420 l 5xea
92 724 m 5xf0
 165 724 l 5
 165 0 l 5
 92 0 l 5
 92 724 l 5xf0
EndSplineSet
Validated: 5
EndChar

StartChar: I
Encoding: 73 73 8
Width: 257
VWidth: 1048
Flags: W
HStem: 0 21G<92 165> 704 20G<92 165>
VStem: 92 73<0 724>
AnchorPoint: "AccentCenter" 128 880 basechar 0
LayerCount: 2
Fore
SplineSet
92 724 m 1
 165 724 l 1
 165 0 l 1
 92 0 l 1
 92 724 l 1
EndSplineSet
Validated: 1
EndChar

StartChar: J
Encoding: 74 74 9
Width: 454
VWidth: 1048
Flags: W
HStem: -8 61<54.1565 232.261> 704 20G<289 362>
VStem: 289 73<118.471 724>
LayerCount: 2
Fore
SplineSet
362 724 m 1
 362 234 l 1
 362 76 275 -8 150 -8 c 1
 89 -8 60 0 12 32 c 1
 43 82 l 1
 81 57 107 53 154 53 c 3
 250 53 289 118 289 231 c 1
 289 724 l 1
 362 724 l 1
EndSplineSet
Validated: 1
EndChar

StartChar: K
Encoding: 75 75 10
Width: 601
VWidth: 1048
Flags: W
HStem: 0 21G<92 166 474.131 585> 704 20G<92 166 429.686 542>
VStem: 92 74<0 253 355 724> 145 21<253 355>
LayerCount: 2
Fore
SplineSet
252 407 m 1xc0
 301 375 l 1
 585 0 l 1
 489 0 l 1
 205 382 l 1
 252 407 l 1xc0
145 253 m 1xd0
 145 355 l 1
 446 724 l 1
 542 724 l 1
 145 253 l 1xd0
92 724 m 1xe0
 166 724 l 1
 166 0 l 1
 92 0 l 1
 92 724 l 1xe0
EndSplineSet
Validated: 5
Colour: ff0000
EndChar

StartChar: L
Encoding: 76 76 11
Width: 543
VWidth: 1048
Flags: W
HStem: 0 61<129 491> 704 20G<92 165>
VStem: 92 73<61 724> 129 36<0 61>
LayerCount: 2
Fore
SplineSet
129 61 m 1xd0
 491 61 l 1
 491 0 l 1
 129 0 l 1
 129 61 l 1xd0
92 724 m 1xe0
 165 724 l 1xe0
 165 0 l 1xd0
 92 0 l 1
 92 724 l 1xe0
EndSplineSet
Validated: 5
EndChar

StartChar: M
Encoding: 77 77 12
Width: 749
VWidth: 1048
Flags: W
HStem: 0 21G<92 166 584 657> 704 20G<92 183.789 565.483 657>
VStem: 92 74<0 578> 158 8<578 724> 584 73<0 578> 584 8<578 724>
LayerCount: 2
Fore
SplineSet
592 724 m 17xc4
 592 578 l 1
 422 136 l 1
 352 136 l 25
 573 724 l 1
 592 724 l 17xc4
158 724 m 25xd0
 176 724 l 1
 405 136 l 25
 336 136 l 1
 158 578 l 1
 158 724 l 25xd0
584 724 m 1xc4
 657 724 l 1
 657 0 l 1
 584 0 l 1xc8
 584 724 l 1xc4
92 724 m 1xe0
 166 724 l 1xd0
 166 0 l 1
 92 0 l 1
 92 724 l 1xe0
EndSplineSet
Validated: 5
EndChar

StartChar: N
Encoding: 78 78 13
Width: 663
VWidth: 1048
Flags: W
HStem: 0 21G<92 165 478.061 571> 704 20G<92 184.9 497 571>
VStem: 92 73<0 607> 157 8<607 724> 497 74<113 724> 497 10<0 113>
LayerCount: 2
Fore
SplineSet
157 724 m 1xd4
 174 724 l 1
 507 113 l 5
 507 0 l 5
 489 0 l 5
 157 607 l 1
 157 724 l 1xd4
497 724 m 5xc8
 571 724 l 5
 571 0 l 5xc8
 497 0 l 5xc4
 497 724 l 5xc8
92 724 m 1xe0
 165 724 l 1xd0
 165 0 l 1
 92 0 l 1
 92 724 l 1xe0
EndSplineSet
Validated: 5
EndChar

StartChar: O
Encoding: 79 79 14
Width: 690
VWidth: 1048
Flags: W
HStem: -8 61<262.137 424.638> 671 61<258.231 424.504>
VStem: 64 74<212.06 515.935> 549 75<210.619 515.935>
AnchorPoint: "AccentCenter" 343 880 basechar 0
LayerCount: 2
Fore
SplineSet
138 366 m 4
 138 145 239 53 343 53 c 0
 447 53 549 145 549 366 c 4
 549 580 445 671 343 671 c 0
 239 671 138 580 138 366 c 4
64 365 m 4
 64 648 217 732 343 732 c 0
 469 732 624 648 624 365 c 4
 624 97 479 -8 343 -8 c 0
 210 -8 64 80 64 365 c 4
EndSplineSet
Validated: 1
EndChar

StartChar: P
Encoding: 80 80 15
Width: 627
VWidth: 1048
Flags: W
HStem: 0 21G<92 165> 280 61<157 397.606> 663 61<153 405.664>
VStem: 92 73<0 280 341 663> 157 8<280 341 663 724> 481 74<423.174 587.609>
LayerCount: 2
Fore
SplineSet
153 724 m 1xec
 153 724 257 724 331 724 c 0
 462 724 555 626 555 508 c 0
 555 381 456 280 313 280 c 9
 157 280 l 1
 157 341 l 1
 313 341 l 17
 416 341 481 418 481 508 c 0
 481 594 415 663 331 663 c 9
 153 663 l 1
 153 724 l 1xec
92 724 m 1xf4
 165 724 l 1xec
 165 0 l 1
 92 0 l 1
 92 724 l 1xf4
EndSplineSet
Validated: 5
Colour: ff0000
EndChar

StartChar: Q
Encoding: 81 81 16
Width: 672
VWidth: 1048
Flags: HW
HStem: -8 61<254.137 416.638> 671 61<250.231 416.504>
VStem: 56 74<212.06 515.935> 541 75<210.619 515.935>
AnchorPoint: "AccentCenter" 335 880 basechar 0
LayerCount: 2
Fore
SplineSet
130 366 m 0
 130 145 231 53 335 53 c 0
 439 53 541 145 541 366 c 0
 541 580 437 671 335 671 c 0
 231 671 130 580 130 366 c 0
56 365 m 0
 56 648 209 732 335 732 c 0
 461 732 616 648 616 365 c 0
 616 97 471 -8 335 -8 c 0
 202 -8 56 80 56 365 c 0
373 0 m 25
 373 0 380 -124 491 -124 c 0
 533 -124 563 -104 563 -104 c 25
 585 -152 l 1
 585 -152 551 -184 483 -184 c 0
 368 -184 309 -80 309 0 c 9
 373 0 l 25
EndSplineSet
EndChar

StartChar: R
Encoding: 82 82 17
Width: 623
VWidth: 1048
Flags: W
HStem: 0 21G<92 166 484.395 579> 300 61<155 387.651> 300 11<301 302.671> 663 61<151 394.815>
VStem: 92 74<0 300 361 663> 155 11<300 361 663 724> 464 74<433.648 593.96>
LayerCount: 2
Fore
SplineSet
301 311 m 1xb2
 350 311 l 1
 415 262 l 1
 579 0 l 5
 497 0 l 5
 301 311 l 1xb2
151 724 m 1
 151 724 241 724 315 724 c 0
 446 724 538 634 538 516 c 0
 538 389 439 300 296 300 c 9
 155 300 l 1
 155 361 l 1
 296 361 l 17xd6
 399 361 464 426 464 516 c 0
 464 602 399 663 315 663 c 9
 151 663 l 1
 151 724 l 1
92 724 m 1x9a
 166 724 l 1x96
 166 0 l 1
 92 0 l 1
 92 724 l 1x9a
EndSplineSet
Validated: 5
Colour: ff0000
EndChar

StartChar: S
Encoding: 83 83 18
Width: 570
VWidth: 1048
Flags: WO
HStem: -8 61<171.752 375.885> 670 62<199.258 385.722>
VStem: 66 74<478.705 618.817> 432 73<103.362 255.043>
LayerCount: 2
Fore
SplineSet
290 732 m 1
 378 732 439.359375 703.810546875 495 649 c 1
 448.826171875 600.66796875 l 1
 408.05078125 641.194335938 362 670 291 670 c 1
 202 670 140 622 140 560 c 1
 140 470 186 434 307 394 c 0
 433.608091631 352.146085411 505 294 505 174 c 1
 505 54 395 -8 269 -8 c 1
 178 -8 88 28 33 93 c 1
 88 140 l 1
 126 87 202 53 269 53 c 1
 370 53 432 92 432 169 c 1
 432 277 368.348649849 309.543216875 244 349 c 0
 134 383.903846154 66 452 66 562 c 1
 66 670 172 732 290 732 c 1
EndSplineSet
EndChar

StartChar: T
Encoding: 84 84 19
Width: 579
VWidth: 1048
Flags: W
HStem: 0 21G<253 326.055> 663 61<32 547>
VStem: 253 73<0 724>
LayerCount: 2
Fore
SplineSet
32 724 m 5
 547 724 l 5
 547 663 l 5
 32 663 l 5
 32 724 l 5
255 724 m 5
 328 724 l 5
 326 0 l 1
 253 0 l 1
 255 724 l 5
EndSplineSet
Colour: ff0000
EndChar

StartChar: U
Encoding: 85 85 20
Width: 666
VWidth: 1048
Flags: W
HStem: -8 61<247.609 416.975> 704 20G<92 165 500 574>
VStem: 92 73<146.429 724> 500 74<151.643 724>
AnchorPoint: "AccentCenter" 327 880 basechar 0
LayerCount: 2
Fore
SplineSet
92 724 m 1
 165 724 l 1
 165 279 l 1
 165 109 239 53 333 53 c 0
 421 53 500 109 500 279 c 1
 500 724 l 1
 574 724 l 1
 574 277 l 1
 574 69 458 -8 329 -8 c 0
 204 -8 92 69 92 279 c 1
 92 724 l 1
EndSplineSet
Validated: 1
EndChar

StartChar: V
Encoding: 86 86 21
Width: 623
VWidth: 1048
Flags: W
HStem: 0 21G<257.425 364.602> 704 20G<26 113.243 509.702 597>
LayerCount: 2
Fore
SplineSet
288 0 m 1
 516 724 l 1
 597 724 l 1
 358 0 l 1
 288 0 l 1
26 724 m 1
 107 724 l 1
 333 0 l 1
 264 0 l 1
 26 724 l 1
EndSplineSet
Validated: 5
Colour: ff0000
EndChar

StartChar: W
Encoding: 87 87 22
Width: 834
VWidth: 1048
Flags: W
HStem: 0 21G<184.718 280.344 547.781 639.282> 704 20G<34 111.95 712.05 790>
VStem: 34 74<690.519 724> 716 74<690.519 724>
LayerCount: 2
Fore
SplineSet
617 0 m 1
 553 0 l 1
 386 640 l 1
 454 640 l 1
 617 0 l 1
790 724 m 5
 635 0 l 1
 573 0 l 1
 716 724 l 5
 790 724 l 5
207 0 m 1
 378 640 l 1
 446 640 l 1
 275 0 l 1
 207 0 l 1
34 724 m 1
 108 724 l 1
 251 0 l 1
 189 0 l 1
 34 724 l 1
EndSplineSet
Validated: 5
Colour: ff0000
EndChar

StartChar: X
Encoding: 88 88 23
Width: 596
VWidth: 1048
Flags: W
HStem: 0 21G<40 140.839 454.226 556> 704 20G<40 140.874 454.191 556>
LayerCount: 2
Fore
SplineSet
40 724 m 1
 130 724 l 1
 298 415 l 1
 465 724 l 5
 556 724 l 5
 343 362 l 1
 556 0 l 5
 465 0 l 5
 298 310 l 1
 130 0 l 1
 40 0 l 1
 253 362 l 1
 40 724 l 1
EndSplineSet
Validated: 1
EndChar

StartChar: Y
Encoding: 89 89 24
Width: 611
VWidth: 1048
Flags: W
HStem: 0 21G<269 342.13> 295 12<271 339> 704 20G<32 129.49 481.697 579>
VStem: 269 73<0 307>
AnchorPoint: "AccentCenter" 304 880 basechar 0
LayerCount: 2
Fore
SplineSet
271 307 m 5
 344 307 l 5
 342 0 l 1
 269 0 l 1
 271 307 l 5
271 295 m 5
 492 724 l 1
 579 724 l 1
 339 295 l 5
 271 295 l 5
32 724 m 1
 119 724 l 1
 344 295 l 5
 276 295 l 5
 32 724 l 1
EndSplineSet
Validated: 5
Colour: ff0000
EndChar

StartChar: Z
Encoding: 90 90 25
Width: 659
VWidth: 1048
Flags: W
HStem: 0 61<174 567> 663 61<92 567>
LayerCount: 2
Fore
SplineSet
485 663 m 1
 567 663 l 1
 174 61 l 5
 92 61 l 1
 485 663 l 1
92 61 m 1
 567 61 l 1
 567 0 l 1
 92 0 l 1
 92 61 l 1
92 724 m 1
 567 724 l 1
 567 663 l 1
 92 663 l 1
 92 724 l 1
EndSplineSet
Validated: 5
EndChar

StartChar: bracketleft
Encoding: 91 91 26
Width: 458
VWidth: 1048
Flags: W
HStem: -66 62<110 357> 757 62<110 357>
VStem: 110 41<-66 -4 757 819>
LayerCount: 2
Fore
SplineSet
110 757 m 1
 110 819 l 1
 357 819 l 1
 357 757 l 1
 110 757 l 1
110 -66 m 1
 110 -4 l 1
 357 -4 l 1
 357 -66 l 1
 110 -66 l 1
77 819 m 1
 151 819 l 1
 151 -66 l 1
 77 -66 l 1
 77 819 l 1
EndSplineSet
Validated: 5
EndChar

StartChar: backslash
Encoding: 92 92 27
Width: 624
VWidth: 1048
Flags: W
LayerCount: 2
Fore
SplineSet
77 795 m 5
 144 819 l 5
 523 -38 l 5
 456 -62 l 5
 77 795 l 5
EndSplineSet
Validated: 1
EndChar

StartChar: bracketright
Encoding: 93 93 28
Width: 458
VWidth: 1048
Flags: W
HStem: -66 62<77 325> 757 62<77 325>
VStem: 284 41<-66 -4 757 819>
LayerCount: 2
Fore
SplineSet
325 757 m 1
 77 757 l 1
 77 819 l 1
 325 819 l 1
 325 757 l 1
325 -66 m 1
 77 -66 l 1
 77 -4 l 1
 325 -4 l 1
 325 -66 l 1
357 819 m 1
 357 -66 l 1
 284 -66 l 1
 284 819 l 1
 357 819 l 1
EndSplineSet
Validated: 5
EndChar

StartChar: asciicircum
Encoding: 94 94 29
Width: 505
VWidth: 1048
Flags: W
HStem: 667 185
VStem: 77 327
LayerCount: 2
Fore
SplineSet
77 716 m 25
 208 852 l 1
 273 852 l 25
 404 716 l 25
 364 667 l 25
 241 786 l 25
 118 667 l 25
 77 716 l 25
EndSplineSet
Validated: 1
EndChar

StartChar: underscore
Encoding: 95 95 30
Width: 579
VWidth: 1048
Flags: W
HStem: -66 66<77 478>
LayerCount: 2
Fore
SplineSet
77 0 m 1
 478 0 l 5
 478 -66 l 5
 77 -66 l 1
 77 0 l 1
EndSplineSet
Validated: 1
EndChar

StartChar: grave
Encoding: 96 96 31
Width: 424
VWidth: 1048
Flags: W
HStem: 765 185
VStem: 77 247
LayerCount: 2
Fore
SplineSet
290 765 m 1
 77 889 l 1
 120 950 l 1
 324 814 l 1
 290 765 l 1
EndSplineSet
Validated: 1
EndChar

StartChar: a
Encoding: 97 97 32
Width: 529
Flags: W
HStem: -8 61<151.018 308.607> 0 21G<388 449> 246 61<164.691 376> 466 61<165.639 328.145>
VStem: 47 73<83.4898 207.881> 376 73<114.133 246 307 419.844> 392 57<0 35.84>
AnchorPoint: "AccentCenter" 259 686 basechar 0
AnchorPoint: "Ring" 263 686 basechar 0
LayerCount: 2
Fore
SplineSet
376 307 m 0xbc
 376 333 l 1
 376 424 328 466 251 466 c 0
 194 466 150 444 118 402 c 1
 63 438 l 1
 106 489 163 527 247 527 c 0
 362 527 449 471 449 329 c 1xbc
 449 281 l 2
 449 0 l 1
 392 0 l 1x7a
 376 80 l 1
 348 23 283 -8 216 -8 c 0
 105 -8 47 52 47 147 c 0
 47 252 141 307 281 307 c 0
 376 307 l 0xbc
120 147 m 0
 120 84 160 53 235 53 c 1
 322 53 376 116 376 190 c 1
 376 246 l 0
 295 246 l 0
 187 246 120 226 120 147 c 0
EndSplineSet
EndChar

StartChar: b
Encoding: 98 98 33
Width: 591
VWidth: 1048
Flags: W
HStem: -8 61<226.386 392.688> 0 21G<92 154.965> 466 61<224.166 389.155> 704 20G<92 166>
VStem: 92 74<32.9661 57 98 724> 92 57<0 24.0339> 461 74<133.392 382.613>
LayerCount: 2
Fore
SplineSet
139 421 m 1xba
 155 462 202 527 315 527 c 1
 442 527 535 440 535 269 c 1
 535 78 439 -8 315 -8 c 1
 200 -8 155 51 135 98 c 1
 166 188 l 1
 166 110 223 53 311 53 c 1
 412 53 461 120 461 266 c 1
 461 399 405 466 311 466 c 1
 225 466 166 417 166 337 c 1
 139 421 l 1xba
92 724 m 1
 166 724 l 1
 166 57 l 1x7a
 149 0 l 1
 92 0 l 1x76
 92 724 l 1
EndSplineSet
Validated: 5
EndChar

StartChar: c
Encoding: 99 99 34
Width: 512
VWidth: 1048
Flags: W
HStem: -8 61<205.223 373.072> 466 61<204.289 370.621>
VStem: 48 74<147.354 370.07>
LayerCount: 2
Fore
SplineSet
287 527 m 1
 369 527 412 503 460 442 c 1
 415 400 l 1
 378 447 347 466 289 466 c 1
 192 466 122 397 122 255 c 1
 122 122 197 53 287 53 c 1
 348 53 389 78 421 120 c 1
 468 78 l 1
 428 36 385 -8 285 -8 c 1
 144 -8 48 104 48 254 c 1
 48 425 155 527 287 527 c 1
EndSplineSet
Validated: 1
EndChar

StartChar: d
Encoding: 100 100 35
Width: 583
VWidth: 1048
Flags: W
HStem: -8 61<207.873 374.114> 0 21G<445.386 509> 466 61<211.845 376.707> 704 20G<435 509>
VStem: 66 74<133.392 382.613> 435 74<31.464 57 98 724> 451 58<0 25.536>
LayerCount: 2
Fore
SplineSet
461 421 m 1xbc
 435 337 l 1
 435 417 376 466 290 466 c 1
 196 466 140 399 140 266 c 1
 140 120 189 53 290 53 c 1
 378 53 435 110 435 188 c 1
 465 98 l 1
 445 51 400 -8 285 -8 c 1
 161 -8 66 78 66 269 c 1
 66 440 159 527 286 527 c 1
 399 527 445 462 461 421 c 1xbc
509 724 m 1
 509 0 l 1
 451 0 l 1x7a
 435 57 l 1
 435 724 l 1
 509 724 l 1
EndSplineSet
Validated: 5
EndChar

StartChar: e
Encoding: 101 101 36
Width: 527
VWidth: 1048
Flags: W
HStem: -8 57<194.16 361.874> 230 62<122 409> 470 57<190.956 345.251>
VStem: 48 74<134.598 230 292 388.302> 409 74<292 394.768>
AnchorPoint: "AccentCenter" 272 686 basechar 0
LayerCount: 2
Fore
SplineSet
272 470 m 1
 158 470 122 384 122 292 c 1
 409 292 l 5
 409 398 359 470 272 470 c 1
272 527 m 0
 403 527 483 428 483 272 c 5
 454 230 l 5
 122 230 l 1
 122 125 172 49 276 49 c 0
 346 49 380 78 413 122 c 5
 462 82 l 5
 425 29 372 -8 278 -8 c 0
 139 -8 48 90 48 261 c 0
 48 422 127 527 272 527 c 0
EndSplineSet
Validated: 1
EndChar

StartChar: f
Encoding: 102 102 37
Width: 376
VWidth: 1048
Flags: W
HStem: 0 21G<116 190> 458 61<71.2 362> 458 45<16 60.8> 674 58<234.957 368.383>
VStem: 116 74<0 626.559>
LayerCount: 2
Fore
SplineSet
301 674 m 1x98
 218 674 190 610 190 527 c 1
 190 0 l 25
 116 0 l 25
 116 520 l 1
 116 652 178 732 297 732 c 1
 325 732 346 728 376 718 c 1
 366 664 l 1
 343 672 326 674 301 674 c 1x98
16 503 m 1xb8
 116 519 l 1
 362 519 l 1
 362 458 l 1
 250 458 l 1xd8
 16 458 l 1
 16 503 l 1xb8
EndSplineSet
Validated: 5
EndChar

StartChar: g
Encoding: 103 103 38
Width: 546
VWidth: 1048
Flags: W
HStem: -197 57<134.331 377.157> 12 62<129 198 202 389.227> 25 49<103 196> 459 60<157.738 315.222> 467 60<417.908 507>
VStem: 20 79<-107.42 -10.2578> 55 66<86.9209 159.122 278.45 423.065> 354 73<280.783 422.114> 413 74<-107.553 -10.7068>
LayerCount: 2
Fore
SplineSet
364 472 m 1x88
 405 511 439 527 507 527 c 1
 507 467 l 1
 459 467 425 460 403 429 c 1
 364 472 l 1x88
48 358 m 0
 48 459 122 519 235 519 c 0
 351 519 427 459 427 358 c 0x91
 427 249 349 188 233 188 c 0
 111 188 48 260 48 358 c 0
121 354 m 0x93
 121 278 158 245 239 245 c 0
 313 245 354 278 354 354 c 0
 354 420 313 459 239 459 c 0
 158 459 121 420 121 354 c 0x93
327 74 m 1xc480
 424 74 487 16 487 -61 c 0
 487 -160 388 -197 253 -197 c 0
 84 -197 20 -144 20 -59 c 1
 20 14 92 74 182 74 c 1
 327 74 l 1xc480
327 12 m 1
 198 12 l 1
 129 12 99 -20 99 -59 c 1
 99 -109 141 -140 255 -140 c 0
 351 -140 413 -116 413 -66 c 0
 413 -13 373 12 327 12 c 1
257 189 m 1
 165 182 121 160 121 119 c 0
 121 88 160 74 202 74 c 0xc2
 196 25 l 0
 103 25 55 65 55 118 c 0xa2
 55 188 139 218 237 229 c 1
 257 189 l 1
EndSplineSet
Validated: 5
Colour: ff0000
EndChar

StartChar: h
Encoding: 104 104 39
Width: 581
VWidth: 1048
Flags: W
HStem: 0 21G<92 166 424 497> 466 61<220.652 377.553> 704 20G<92.9724 166>
VStem: 92 74<0 724> 424 73<0 416.621>
LayerCount: 2
Fore
SplineSet
93 724 m 1
 166 724 l 1
 166 0 l 1
 92 0 l 1
 93 724 l 1
149 423 m 1
 158 459 203 527 312 527 c 0
 442 527 497 435 497 326 c 1
 497 0 l 1
 424 0 l 1
 424 324 l 2
 424 414 386 466 303 466 c 0
 207 466 166 402 166 330 c 1
 149 423 l 1
EndSplineSet
Validated: 5
EndChar

StartChar: i
Encoding: 105 105 40
Width: 296
VWidth: 1048
Flags: HW
HStem: 0 21G<126 200> 455 64<32 174> 650 105<121.515 206.485>
VStem: 112 104<659.515 745.146> 126 74<0 455> 126 48<455 519>
LayerCount: 2
Fore
SplineSet
32 519 m 1xe4
 174 519 l 1
 174 455 l 1
 32 455 l 1
 32 519 l 1xe4
126 0 m 1xe8
 126 519 l 1xe4
 200 519 l 1
 200 0 l 1
 126 0 l 1xe8
112 702 m 0xf0
 112 731 135 755 164 755 c 0
 193 755 216 731 216 702 c 0
 216 673 193 650 164 650 c 0
 135 650 112 673 112 702 c 0xf0
EndSplineSet
EndChar

StartChar: j
Encoding: 106 106 41
Width: 280
VWidth: 1048
Flags: HW
HStem: -193 55.8516<22.8057 80.4428> 499 20G<133.806 206.806> 650 105<127.321 212.952>
VStem: 117.806 105<659.515 745.146> 133.806 73<-81.2303 519>
LayerCount: 2
Fore
SplineSet
30.8056640625 519 m 1xe4
 202.805664062 519 l 1
 202.805664062 455 l 1
 30.8056640625 455 l 1
 30.8056640625 519 l 1xe4
117.805664062 702 m 0xf0
 117.805664062 731 140.805664062 755 169.805664062 755 c 0
 198.805664062 755 222.805664062 731 222.805664062 702 c 0
 222.805664062 673 198.805664062 650 169.805664062 650 c 0
 140.805664062 650 117.805664062 673 117.805664062 702 c 0xf0
133.805664062 45 m 1xe8
 133.805664062 519 l 1
 206.805664062 519 l 1
 206.805664062 45 l 1
 206.805664062 -86 154.805664062 -154.790039062 76.8056640625 -182 c 1
 59.8095703125 -187.928710938 34.8056640625 -193 22.8056640625 -193 c 1
 16 -137.1484375 l 1
 26.8056640625 -137 37.474609375 -134.952148438 48.8056640625 -131 c 1
 110.805664062 -109.372070312 133.805664062 -72 133.805664062 45 c 1xe8
EndSplineSet
Colour: ff0000
EndChar

StartChar: k
Encoding: 107 107 42
Width: 526
VWidth: 1048
Flags: W
HStem: 0 21G<92 166 380.275 487> 704 20G<92 166>
VStem: 92 74<0 180 252 724>
LayerCount: 2
Fore
SplineSet
252 276 m 1
 301 245 l 1
 487 0 l 1
 395 0 l 17
 194 273 l 1
 252 276 l 1
147 252 m 1
 394 515 l 1
 494 515 l 1
 164 180 l 1
 147 252 l 1
92 724 m 1
 166 724 l 1
 166 0 l 1
 92 0 l 1
 92 724 l 1
EndSplineSet
Validated: 5
Colour: ff0000
EndChar

StartChar: l
Encoding: 108 108 43
Width: 239
VWidth: 1048
Flags: HW
HStem: 0 21G<76 150> 704 64<-16 150>
VStem: 76 74<0 768>
LayerCount: 2
Fore
SplineSet
-8 768 m 1
 126 768 l 1
 126 704 l 1
 -8 704 l 1
 -8 768 l 1
76 0 m 1
 76 768 l 1
 150 768 l 1
 150 0 l 1
 76 0 l 1
EndSplineSet
EndChar

StartChar: m
Encoding: 109 109 44
Width: 845
VWidth: 1048
Flags: W
HStem: 0 21G<92 165 389 462 690 763> 466 61<225.665 357.682 512.222 651.976> 499 20G<92 152.596>
VStem: 92 73<0 354 430 469.872> 92 57<479.128 519> 389 73<0 430> 690 73<0 428.937>
LayerCount: 2
Fore
SplineSet
444 439 m 1xc6
 459 476 522 527 603 527 c 1
 705 527 763 459 763 354 c 1
 763 0 l 1
 690 0 l 1
 690 353 l 1
 690 430 643 466 588 466 c 1
 509 466 474 418 462 391 c 1
 444 439 l 1xc6
159 429 m 1
 170 462 207 527 308 527 c 1
 379 527 430 486 450 430 c 1
 462 430 l 1
 462 0 l 1
 389 0 l 1
 389 369 l 1
 389 418 356 466 301 466 c 1
 213 466 172 396 164 354 c 1
 159 429 l 1
92 519 m 1xae
 149 519 l 1xae
 165 430 l 1
 165 0 l 1
 92 0 l 1xb6
 92 519 l 1xae
EndSplineSet
Validated: 5
EndChar

StartChar: n
Encoding: 110 110 45
Width: 589
VWidth: 1048
Flags: W
HStem: 0 21G<92 165 436 510> 466 61<233.418 389.599> 499 20G<92 153.638>
VStem: 92 73<0 313 450 480.912> 92 57<488.088 519> 436 74<0 416.621>
AnchorPoint: "AccentCenter" 294 686 basechar 0
LayerCount: 2
Fore
SplineSet
92 519 m 5xac
 149 519 l 5xac
 165 450 l 5
 165 0 l 5
 92 0 l 5xb4
 92 519 l 5xac
147 413 m 5
 159 465 232 527 324 527 c 4
 454 527 510 435 510 326 c 5
 510 0 l 5
 436 0 l 5
 436 324 l 6
 436 414 398 466 315 466 c 4
 215 466 165 389 165 313 c 5xd4
 147 413 l 5
EndSplineSet
Validated: 5
EndChar

StartChar: o
Encoding: 111 111 46
Width: 576
VWidth: 1048
Flags: W
HStem: -8 61<206.541 366.209> 466 61<208.19 364.519>
VStem: 56 74<141.756 374.349> 446 74<141.756 374.349>
AnchorPoint: "AccentCenter" 286 686 basechar 0
LayerCount: 2
Fore
SplineSet
130 258 m 0
 130 121 194 53 286 53 c 0
 378 53 446 121 446 258 c 0
 446 395 378 466 286 466 c 0
 194 466 130 395 130 258 c 0
56 261 m 0
 56 428 160 527 286 527 c 0
 412 527 520 428 520 261 c 0
 520 94 412 -8 286 -8 c 0
 160 -8 56 94 56 261 c 0
EndSplineSet
Validated: 1
EndChar

StartChar: p
Encoding: 112 112 47
Width: 590
VWidth: 1048
Flags: W
HStem: -8 61<221.179 384.19> 466 61<226.227 392.627>
VStem: 92 73<462 487.536> 92 57<493.464 519> 461 73<138.113 387.115>
LayerCount: 2
Fore
SplineSet
139 98 m 1xe8
 155 57 198 -8 311 -8 c 1
 438 -8 534 87 534 258 c 1
 534 449 439 527 315 527 c 1
 200 527 155 468 135 421 c 1
 165 331 l 1
 165 409 223 466 311 466 c 1
 412 466 461 403 461 257 c 1
 461 124 401 53 307 53 c 1
 221 53 165 102 165 182 c 1
 139 98 l 1xe8
92 -197 m 1xd8
 165 -197 l 1
 165 462 l 1xe8
 149 519 l 1
 92 519 l 1
 92 -197 l 1xd8
EndSplineSet
Validated: 5
EndChar

StartChar: q
Encoding: 113 113 48
Width: 573
VWidth: 1048
Flags: W
HStem: -8 61<199.757 362.399> 466 61<188.44 356.23> 499 20G<428.386 492>
VStem: 49 74<142.584 391.571> 418 74<-197 421 462 487.536> 434 58<493.464 519>
LayerCount: 2
Fore
SplineSet
443 98 m 1xd8
 427 57 386 -8 273 -8 c 1
 146 -8 49 87 49 258 c 1
 49 449 142 527 266 527 c 1
 381 527 427 468 447 421 c 1
 418 331 l 1
 418 409 361 466 273 466 c 1
 172 466 123 407 123 261 c 1
 123 128 183 53 277 53 c 1
 363 53 418 102 418 182 c 1
 443 98 l 1xd8
492 -197 m 1
 418 -197 l 1
 418 462 l 1xb8
 434 519 l 1
 492 519 l 1xb4
 492 -197 l 1
EndSplineSet
Validated: 5
EndChar

StartChar: r
Encoding: 114 114 49
Width: 419
VWidth: 1048
Flags: W
HStem: 0 21G<92 165> 463 64<240.8 392.609> 499 20G<92 151.645>
VStem: 92 73<0 360 398 452.208> 92 57<464.792 519>
LayerCount: 2
Fore
SplineSet
326 527 m 1xd0
 357 527 378 523 403 515 c 1
 390 456 l 1
 372 461 352 463 330 463 c 1
 207 463 165 373 165 258 c 1
 141 360 l 1
 151 449 199 527 326 527 c 1xd0
92 519 m 1xa8
 149 519 l 1xa8
 165 398 l 1
 165 0 l 1
 92 0 l 1xb0
 92 519 l 1xa8
EndSplineSet
Validated: 5
Colour: ff0000
EndChar

StartChar: s
Encoding: 115 115 50
Width: 496
VWidth: 1048
Flags: W
HStem: -8 59<141.952 329.066> 466 61<160.543 338.719>
VStem: 60 74<336.789 438.89> 358 74<78.5923 182.34>
LayerCount: 2
Fore
SplineSet
246 527 m 5
 329 527 370 502 418 464 c 5
 377 414 l 5
 338 451 307 466 248 466 c 5
 182 466 134 442 134 391 c 5
 134 348 147 325 270 286 c 4
 358 258 432 221 432 135 c 5
 432 39 338 -8 244 -8 c 5
 144 -8 91 15 32 76 c 5
 85 123 l 5
 117 82 159 51 242 51 c 5
 319 51 358 80 358 136 c 5
 358 188 308 207 211 239 c 4
 105 274 60 317 60 387 c 5
 60 463 122 527 246 527 c 5
EndSplineSet
Validated: 1
EndChar

StartChar: t
Encoding: 116 116 51
Width: 393
VWidth: 1048
Flags: W
HStem: 0 57<221.044 351.894> 462 57<24 338>
VStem: 110 73<98.0504 635>
LayerCount: 2
Fore
SplineSet
283 0 m 1
 164 0 110 79 110 182 c 1
 110 635 l 1
 183 686 l 1
 183 182 l 1
 183 99 223 57 283 57 c 1
 310 57 336 59 358 64 c 1
 352 8 l 1
 331 3 312 0 283 0 c 1
24 462 m 5
 24 519 l 5
 338 519 l 1
 338 462 l 1
 24 462 l 5
EndSplineSet
EndChar

StartChar: u
Encoding: 117 117 52
Width: 586
VWidth: 1048
Flags: W
HStem: -8 61<205.604 360.334> 0 21G<440.098 502> 499 20G<84 157 428 502>
VStem: 84 73<103.167 519> 428 74<45.264 82 119 519> 444 58<0 36.736>
AnchorPoint: "AccentCenter" 292 686 basechar 0
LayerCount: 2
Fore
SplineSet
502 0 m 1x74
 444 0 l 1x74
 428 82 l 1
 428 519 l 1
 502 519 l 1x78
 502 0 l 1x74
446 119 m 1
 417 46 365 -8 273 -8 c 0
 143 -8 84 85 84 194 c 1
 84 519 l 1
 157 519 l 1
 157 196 l 2
 157 106 196 53 279 53 c 0
 377 53 428 124 428 208 c 1xb8
 446 119 l 1
EndSplineSet
Validated: 5
EndChar

StartChar: v
Encoding: 118 118 53
Width: 532
VWidth: 1048
Flags: W
HStem: 0 21G<216.946 303.516> 499 20G<16 103.514 428.023 516>
LayerCount: 2
Fore
SplineSet
229 0 m 1
 436 519 l 1
 516 519 l 1
 295 0 l 1
 229 0 l 1
16 519 m 1
 96 519 l 1
 291 0 l 1
 225 0 l 1
 16 519 l 1
EndSplineSet
Validated: 5
Colour: ff0000
EndChar

StartChar: w
Encoding: 119 119 54
Width: 675
VWidth: 1048
Flags: W
HStem: 0 21G<153.757 246.746 434.605 527.476> 495 20G<24 101.777 583.913 663>
VStem: 24 73<487.655 515> 589 74<488.819 515>
LayerCount: 2
Fore
SplineSet
505 0 m 1
 440 0 l 1
 317 456 l 1
 382 456 l 1
 505 0 l 1
663 515 m 5
 522 0 l 1
 458 0 l 1
 589 515 l 5
 663 515 l 5
175 0 m 1
 306 456 l 1
 372 456 l 1
 241 0 l 1
 175 0 l 1
24 515 m 1
 97 515 l 1
 220 0 l 1
 159 0 l 1
 24 515 l 1
EndSplineSet
Validated: 5
Colour: ff0000
EndChar

StartChar: x
Encoding: 120 120 55
Width: 515
VWidth: 1048
Flags: W
HStem: 0 21G<16 119.756 395.335 499> 499 20G<16 119.945 395.147 499>
LayerCount: 2
Fore
SplineSet
16 519 m 1
 106 519 l 1
 258 301 l 1
 409 519 l 1
 499 519 l 1
 303 260 l 1
 499 0 l 1
 409 0 l 1
 258 221 l 5
 106 0 l 1
 16 0 l 1
 213 260 l 1
 16 519 l 1
EndSplineSet
Validated: 1
Colour: ff0000
EndChar

StartChar: y
Encoding: 121 121 56
Width: 539
VWidth: 1048
Flags: W
HStem: -207 54<80.0886 103.61> 499 20G<32 120.812 416.073 507>
AnchorPoint: "AccentCenter" 279 686 basechar 0
LayerCount: 2
Fore
SplineSet
32 519 m 1
 113 519 l 1
 263 135 l 1
 277 85 l 1
 243 23 l 1
 32 519 l 1
48 -153 m 0
 128 -128 190 -90 230 -3 c 1
 249 41 l 1
 275 85 l 1
 290 135 l 1
 423 519 l 1
 507 519 l 1
 308 14 l 1
 249 -127 164 -182 85 -207 c 0
 48 -153 l 0
EndSplineSet
Validated: 5
Colour: ff0000
EndChar

StartChar: z
Encoding: 122 122 57
Width: 565
VWidth: 1048
Flags: HW
HStem: 0 66<173 473> 454 65<80 467>
LayerCount: 2
Fore
SplineSet
381 454 m 1
 467 454 l 1
 163 66 l 5
 77 66 l 5
 381 454 l 1
77 66 m 5
 473 66 l 1
 473 0 l 1
 77 0 l 5
 77 66 l 5
80 519 m 1
 467 519 l 1
 467 454 l 1
 80 454 l 1
 80 519 l 1
EndSplineSet
EndChar

StartChar: braceleft
Encoding: 123 123 58
Width: 560
VWidth: 1048
Flags: W
HStem: -70 62<298.186 476> 757 61<306.266 476>
VStem: 170 74<44.0761 204.645 542.355 699.015>
LayerCount: 2
Fore
SplineSet
396 -8 m 1
 476 -8 l 1
 476 -70 l 1
 396 -70 l 1
 396 -8 l 1
396 818 m 1
 476 818 l 1
 476 757 l 1
 396 757 l 1
 396 818 l 1
77 404 m 1
 218 494 l 1
 200 523 170 580 170 620 c 0
 170 741 267 818 396 818 c 1
 396 757 l 1
 305 757 244 711 244 620 c 0
 244 578 264 536 286 506 c 1
 274 456 l 1
 137 373 l 1
 274 291 l 1
 286 241 l 1
 264 211 244 169 244 127 c 0
 244 26 305 -8 396 -8 c 1
 396 -70 l 1
 260 -70 170 -4 170 127 c 0
 170 167 200 224 218 253 c 1
 77 342 l 1
 77 404 l 1
EndSplineSet
Validated: 5
EndChar

StartChar: bar
Encoding: 124 124 59
Width: 235
VWidth: 1048
Flags: W
VStem: 77 74<-66 819>
LayerCount: 2
Fore
SplineSet
77 819 m 1
 151 819 l 1
 151 -66 l 1
 77 -66 l 1
 77 819 l 1
EndSplineSet
Validated: 1
EndChar

StartChar: braceright
Encoding: 125 125 60
Width: 560
VWidth: 1048
Flags: W
VStem: 309 74<44.0761 204.645 542.355 699.015>
LayerCount: 2
Fore
SplineSet
157 -8 m 1
 77 -8 l 1
 77 -70 l 1
 157 -70 l 1
 157 -8 l 1
157 818 m 5
 77 818 l 5
 77 757 l 5
 157 757 l 5
 157 818 l 5
476 404 m 1
 335 494 l 1
 353 523 383 580 383 620 c 0
 383 741 286 818 157 818 c 5
 157 757 l 5
 248 757 309 711 309 620 c 0
 309 578 289 536 267 506 c 1
 279 456 l 1
 416 373 l 1
 279 291 l 1
 267 241 l 1
 289 211 309 169 309 127 c 0
 309 26 248 -8 157 -8 c 1
 157 -70 l 1
 293 -70 383 -4 383 127 c 0
 383 167 353 224 335 253 c 1
 476 342 l 1
 476 404 l 1
EndSplineSet
Validated: 5
EndChar

StartChar: asciitilde
Encoding: 126 126 61
Width: 669
VWidth: 1048
Flags: W
HStem: 225 66<378.297 484.61> 321 65<179 294.228>
LayerCount: 2
Fore
SplineSet
77 265 m 5
 77 265 117 386 249 386 c 4
 324 386 368 291 439 291 c 4
 497 291 525 384 525 384 c 5
 585 343 l 29
 585 343 537 225 431 225 c 4
 348 225 302 321 237 321 c 4
 162 321 128 225 128 225 c 5
 77 265 l 5
EndSplineSet
Validated: 1
EndChar

StartChar: exclam
Encoding: 33 33 62
Width: 298
VWidth: 1048
Flags: W
HStem: -8 121<89.4534 185.14>
VStem: 77 121<4.83948 99.7768> 92 90<297.352 757> 100 74<244 703.648>
LayerCount: 2
Fore
SplineSet
92 757 m 1xa0
 182 757 l 5xa0
 174 244 l 1
 100 244 l 1x90
 92 757 l 1xa0
77 52 m 0xc0
 77 85 100 113 137 113 c 0
 174 113 198 85 198 52 c 0
 198 19 174 -8 137 -8 c 0
 100 -8 77 19 77 52 c 0xc0
EndSplineSet
Validated: 1
EndChar

StartChar: quotedbl
Encoding: 34 34 63
Width: 597
VWidth: 1048
Flags: W
HStem: 510 52<99.416 119.789 329.278 349.789> 698 121<131.453 184.116 360.86 414.11>
VStem: 205 35<726 749.163> 434 35<726 750.54>
LayerCount: 2
Fore
SplineSet
409 819 m 5
 468 819 497 772 497 718 c 5
 497 617 403 528 333 510 c 5
 306 562 l 5
 373 582 434 657 434 723 c 5
 415 796 l 5
 409 819 l 5
348 759 m 4
 348 792 372 819 409 819 c 4
 446 819 469 792 469 759 c 4
 469 726 446 698 409 698 c 4
 372 698 348 726 348 759 c 4
179 819 m 5
 238 819 267 772 267 718 c 5
 267 617 173 528 103 510 c 5
 77 562 l 5
 144 582 205 657 205 723 c 5
 185 796 l 5
 179 819 l 5
119 759 m 4
 119 792 142 819 179 819 c 4
 216 819 240 792 240 759 c 4
 240 726 216 698 179 698 c 4
 142 698 119 726 119 759 c 4
EndSplineSet
Validated: 5
EndChar

StartChar: numbersign
Encoding: 35 35 64
Width: 710
VWidth: 1048
Flags: W
HStem: 0 21G<93 176.635 311 394.635> 209 61<77 609> 458 61<77 609> 704 20G<291.365 375 509.365 593>
LayerCount: 2
Fore
SplineSet
93 0 m 1
 297 724 l 1
 375 724 l 1
 171 0 l 1
 93 0 l 1
311 0 m 1
 515 724 l 1
 593 724 l 1
 389 0 l 1
 311 0 l 1
77 270 m 5
 609 270 l 5
 609 209 l 5
 77 209 l 5
 77 270 l 5
77 519 m 1
 609 519 l 1
 609 458 l 1
 77 458 l 1
 77 519 l 1
EndSplineSet
Validated: 5
EndChar

StartChar: dollar
Encoding: 36 36 65
Width: 636
VWidth: 1048
Flags: W
HStem: -8 61<217.807 409.36> 671 61<226.4 402.629>
VStem: 77 67<125.511 156.354> 99 74<481.884 620.715> 281 73<-139 863> 462 74<101.5 248.64>
LayerCount: 2
Fore
SplineSet
310 732 m 5xdc
 398 732 473 708 531 607 c 5
 471 573 l 5
 433 638 391 671 311 671 c 5
 222 671 173 616 173 554 c 5xdc
 173 475 216 450 338 393 c 4
 443 344 536 288 536 182 c 5
 536 43 437 -8 310 -8 c 5
 189 -8 111 48 77 154 c 5
 144 176 l 5xec
 162 104 215 53 310 53 c 5
 408 53 462 91 462 177 c 5
 462 270 381 301 278 349 c 4
 159 404 99 458 99 556 c 5
 99 664 192 732 310 732 c 5xdc
281 863 m 1
 354 863 l 1
 354 -139 l 1
 281 -139 l 1
 281 863 l 1
EndSplineSet
Validated: 5
EndChar

StartChar: percent
Encoding: 37 37 66
Width: 726
VWidth: 1048
Flags: W
HStem: -8 65<452.595 535.366> 254 65<452.388 535.366> 429 66<165.319 248.366> 691 66<167.223 248.366>
VStem: 77 73<510.484 675.603> 265 74<508.294 675.623> 364 72<73.1314 237.857> 552 74<70.9301 238.507>
LayerCount: 2
Fore
SplineSet
208 691 m 24
 163 691 150 647 150 592 c 0
 150 535 164 495 208 495 c 24
 252 495 265 536 265 593 c 0
 265 647 252 691 208 691 c 24
208 757 m 24
 290 757 339 691 339 593 c 0
 339 495 290 429 208 429 c 24
 126 429 77 495 77 593 c 0
 77 691 126 757 208 757 c 24
131 -38 m 1
 494 786 l 5
 560 762 l 5
 198 -62 l 1
 131 -38 l 1
495 254 m 24
 450 254 436 210 436 155 c 0
 436 98 451 57 495 57 c 24
 539 57 552 99 552 156 c 0
 552 210 539 254 495 254 c 24
495 319 m 24
 577 319 626 254 626 156 c 0
 626 58 577 -8 495 -8 c 24
 413 -8 364 58 364 156 c 0
 364 254 413 319 495 319 c 24
EndSplineSet
Validated: 1
EndChar

StartChar: ampersand
Encoding: 38 38 67
Width: 762
VWidth: 1048
Flags: W
HStem: -8 61<241.488 434.23> 0 21G<572.527 687> 671 61<290.154 436.346>
VStem: 84 74<133.667 314.238> 173 74<486.257 631.474>
LayerCount: 2
Fore
SplineSet
600 386 m 1xb8
 671 368 l 1
 652 293 l 1
 603 105 502 -8 347 -8 c 1
 194 -8 84 69 84 227 c 1
 84 333 154 410 248 447 c 1
 279 402 l 1
 225 376 158 324 158 227 c 1
 158 113 226 53 347 53 c 1
 460 53 536 145 580 312 c 1
 600 386 l 1xb8
357 732 m 1
 469 732 509 686 551 627 c 1
 494 587 l 1
 466 628 430 671 360 671 c 1
 290 671 247 621 247 574 c 1
 247 505 278 466 320 418 c 1
 687 0 l 1
 590 0 l 1x78
 265 372 l 1
 224 418 173 482 173 567 c 1
 173 651 249 732 357 732 c 1
EndSplineSet
Validated: 5
Colour: ff0000
EndChar

StartChar: quotesingle
Encoding: 39 39 68
Width: 192
VWidth: 1048
Flags: W
HStem: 519 205
VStem: 46 136
LayerCount: 2
Fore
SplineSet
182 724 m 1
 99 519 l 1
 46 535 l 1
 106 724 l 1
 182 724 l 1
EndSplineSet
Validated: 1
EndChar

StartChar: parenleft
Encoding: 40 40 69
Width: 466
VWidth: 1048
Flags: W
VStem: 77 74<217.517 527.727>
LayerCount: 2
Fore
SplineSet
331 819 m 5
 366 768 l 5
 238 702 151 585 151 372 c 4
 151 164 254 34 366 -19 c 5
 335 -74 l 5
 198 -14 77 157 77 372 c 4
 77 591 196 757 331 819 c 5
EndSplineSet
Validated: 1
EndChar

StartChar: parenright
Encoding: 41 41 70
Width: 466
VWidth: 1048
Flags: W
VStem: 292 74<218.098 524.528>
LayerCount: 2
Fore
SplineSet
112 -74 m 1
 77 -23 l 1
 205 43 292 161 292 374 c 0
 292 582 189 712 77 765 c 1
 108 819 l 1
 245 759 366 589 366 374 c 0
 366 155 247 -12 112 -74 c 1
EndSplineSet
Validated: 1
EndChar

StartChar: asterisk
Encoding: 42 42 71
Width: 550
VWidth: 1048
Flags: W
VStem: 230 66<657.338 806>
LayerCount: 2
Fore
SplineSet
129 488 m 1
 188 573 l 1
 247 633 l 1
 280 608 l 1
 243 535 l 1
 182 451 l 1
 129 488 l 1
397 488 m 1
 344 451 l 1
 284 535 l 1
 247 608 l 1
 280 633 l 1
 338 573 l 1
 397 488 l 1
96 707 m 1
 195 675 l 1
 269 638 l 1
 257 599 l 1
 175 612 l 1
 77 644 l 1
 96 707 l 1
430 707 m 1
 450 644 l 1
 351 612 l 1
 269 599 l 1
 257 638 l 1
 332 675 l 1
 430 707 l 1
230 806 m 1
 296 806 l 1
 296 702 l 1
 284 621 l 1
 243 621 l 1
 230 702 l 1
 230 806 l 1
EndSplineSet
Validated: 5
EndChar

StartChar: plus
Encoding: 43 43 72
Width: 597
VWidth: 1048
Flags: W
HStem: 254 65<77 497>
VStem: 253 65<74 500>
LayerCount: 2
Fore
SplineSet
253 500 m 5
 318 500 l 5
 318 74 l 5
 253 74 l 5
 253 500 l 5
77 319 m 5
 497 319 l 5
 497 254 l 5
 77 254 l 5
 77 319 l 5
EndSplineSet
Validated: 5
EndChar

StartChar: comma
Encoding: 44 44 73
Width: 368
VWidth: 1048
Flags: W
HStem: -197 53<99.4836 119.789> -8 121<131.453 184.116>
VStem: 205 35<19 42.1632>
LayerCount: 2
Fore
SplineSet
179 113 m 5
 238 113 267 65 267 11 c 5
 267 -90 173 -179 103 -197 c 5
 77 -144 l 5
 144 -124 205 -50 205 16 c 5
 185 89 l 5
 179 113 l 5
119 52 m 4
 119 85 142 113 179 113 c 4
 216 113 240 85 240 52 c 4
 240 19 216 -8 179 -8 c 4
 142 -8 119 19 119 52 c 4
EndSplineSet
Validated: 5
EndChar

StartChar: hyphen
Encoding: 45 45 74
Width: 597
VWidth: 1048
Flags: W
HStem: 254 65<77 497>
LayerCount: 2
Fore
SplineSet
77 319 m 5
 497 319 l 5
 497 254 l 5
 77 254 l 5
 77 319 l 5
EndSplineSet
Validated: 1
EndChar

StartChar: period
Encoding: 46 46 75
Width: 298
VWidth: 1048
Flags: W
HStem: -8 121<89.4534 185.14>
VStem: 77 121<4.83948 99.7768>
LayerCount: 2
Fore
SplineSet
77 52 m 4
 77 85 100 113 137 113 c 4
 174 113 198 85 198 52 c 4
 198 19 174 -8 137 -8 c 4
 100 -8 77 19 77 52 c 4
EndSplineSet
Validated: 1
EndChar

StartChar: slash
Encoding: 47 47 76
Width: 420
VWidth: 1048
Flags: W
LayerCount: 2
Fore
SplineSet
0 -38 m 1
 379 819 l 1
 446 795 l 1
 67 -62 l 1
 0 -38 l 1
EndSplineSet
Validated: 1
EndChar

StartChar: zero
Encoding: 48 48 77
Width: 599
VWidth: 1048
Flags: W
HStem: -7 61<225.936 371.229> 672 61<222.375 375.982>
VStem: 56 74<218.388 544.123> 468 75<189.955 547.154>
LayerCount: 2
Fore
SplineSet
104 210 m 5
 447 575 l 5
 484.887695312 519.383789062 l 1
 141.88671875 154.3828125 l 1
 104 210 l 5
130 366.748046875 m 0
 130 168 185 54 297.815429688 54 c 0
 415 54 468 177 468 369.33203125 c 0
 468 558 417 672 298.98046875 672 c 0
 182 672 130 560 130 366.748046875 c 0
56 366.208007812 m 0
 56 598 134 733 298.891601562 733 c 0
 465 733 543 596 543 369.443359375 c 0
 543 140 463 -7 297.12890625 -7 c 0
 137 -7 56 130 56 366.208007812 c 0
EndSplineSet
Validated: 5
EndChar

StartChar: one
Encoding: 49 49 78
Width: 448
VWidth: 1048
Flags: W
HStem: 0 21G<221 295> 527 21G<40.1538 80.72> 704 20G<184.379 295>
VStem: 221 74<0 652>
LayerCount: 2
Fore
SplineSet
221 0 m 1
 221 652 l 1
 54 527 l 1
 18 579 l 1
 211 724 l 1
 295 724 l 1
 295 0 l 25
 221 0 l 1
EndSplineSet
Validated: 1
Colour: ff0000
EndChar

StartChar: two
Encoding: 50 50 79
Width: 552
VWidth: 1048
Flags: W
HStem: 0 68<135 479> 671 61<160.064 339.647>
VStem: 49 86<68 128.979> 397 74<450.922 615.601>
LayerCount: 2
Fore
SplineSet
49 32 m 1
 49 104 88 219 256 336 c 4
 350 402 397 451 397 539 c 0
 397 617 345 671 260 671 c 0
 176 671 134 643 106 587 c 1
 51 620 l 1
 99 703 164 732 258 732 c 0
 394 732 471 644 471 535 c 0
 471 409 393 348 287 273 c 4
 158 183 135 113 135 68 c 1
 479 68 l 1
 479 0 l 1
 49 0 l 1
 49 32 l 1
EndSplineSet
Validated: 1
EndChar

StartChar: three
Encoding: 51 51 80
Width: 620
VWidth: 1048
Flags: W
HStem: -8 61<177.512 378.308> 356 66<218 360.301> 671 61<178.414 362.995>
VStem: 415 73<476.752 621.969> 445 74<120.468 293.791>
LayerCount: 2
Fore
SplineSet
70 634 m 1xf0
 117 702 185 732 269 732 c 1
 413 732 488 661 488 552 c 1xf0
 488 467 446 421 388 391 c 1
 456 376 519 309 519 212 c 1
 519 77 434 -8 282 -8 c 1
 163 -8 97 30 48 104 c 1
 105 143 l 1
 138 87 194 53 282 53 c 1
 386 53 444 102 445 214 c 1xe8
 445 307 384 356 280 356 c 9
 218 356 l 25
 218 422 l 25
 283 422 l 17
 352 422 415 468 415 551 c 1
 415 637 350 671 269 671 c 1
 198 671 158 644 126 597 c 1
 70 634 l 1xf0
EndSplineSet
Validated: 1
EndChar

StartChar: four
Encoding: 52 52 81
Width: 588
VWidth: 1048
Flags: W
HStem: 0 21G<329.945 403> 167 65<107 521> 712 20G<316.16 401.055>
VStem: 330 73<0 732>
LayerCount: 2
Fore
SplineSet
328 732 m 1
 383 711 l 1
 107 232 l 1
 32 232 l 1
 328 732 l 1
32 232 m 1
 521 232 l 1
 521 167 l 1
 32 167 l 1
 32 232 l 1
328 732 m 1
 401 732 l 1
 403 0 l 1
 330 0 l 1
 328 732 l 1
EndSplineSet
Validated: 5
EndChar

StartChar: five
Encoding: 53 53 82
Width: 583
VWidth: 1048
Flags: W
HStem: -8 59<155.669 354.046> 418 60<170.907 360.049> 658 66<99 464>
VStem: 433 74<132.716 341.676>
LayerCount: 2
Fore
SplineSet
273 478 m 1
 404 478 507 400 507 241 c 0
 507 93 417 -8 259 -8 c 1
 131 -8 79 40 44 91 c 1
 97 131 l 1
 129 82 168 51 259 51 c 1
 361 51 433 105 433 237 c 0
 433 358 373 418 271 418 c 1
 204 418 169 400 142 375 c 1
 101 401 l 17
 131 448 187 478 273 478 c 1
95 724 m 1
 169 724 l 1
 142 375 l 1
 73 411 l 1
 95 724 l 1
99 724 m 1
 464 724 l 1
 464 658 l 1
 99 658 l 1
 99 724 l 1
EndSplineSet
Validated: 5
EndChar

StartChar: six
Encoding: 54 54 83
Width: 571
VWidth: 1048
Flags: W
HStem: -8 61<184.759 357.58> 432 63<188.523 355.18> 679 53<341.391 372.246>
VStem: 49 72<124.571 359.003> 424 74<128.403 357.555>
LayerCount: 2
Fore
SplineSet
272 432 m 0
 168 432 121 358 121 255 c 0
 121 123 159 53 272 53 c 0
 386 53 424 132 424 246 c 0
 424 351 383 432 272 432 c 0
282 495 m 0
 422 495 498 403 498 246 c 0
 498 91 416 -8 272 -8 c 0
 111 -8 49 98 49 253 c 0
 49 341 51 457 156 591 c 0
 210 660 297 709 369 732 c 1
 393 679 l 1
 325 655 269 623 228 578 c 0
 184 530 157 490 144 435 c 5
 181 484 235 495 282 495 c 0
EndSplineSet
EndChar

StartChar: seven
Encoding: 55 55 84
Width: 529
VWidth: 1048
Flags: W
HStem: -8 21G<110.87 178.197> 663 61<16 445>
LayerCount: 2
Fore
SplineSet
16 724 m 1
 445 724 l 1
 445 663 l 1
 16 663 l 1
 16 724 l 1
367 663 m 1
 445 663 l 1
 170 -8 l 1
 102 15 l 1
 367 663 l 1
EndSplineSet
Validated: 5
Colour: ff0000
EndChar

StartChar: eight
Encoding: 56 56 85
Width: 577
VWidth: 1048
Flags: W
HStem: -7 61<187.574 369.495> 352 61<164 388> 671 61<191.838 357.457>
VStem: 49 74<120.11 288.377> 66 73<463.574 618.026> 414 73<465.78 617.056> 430 74<115.631 283.575>
LayerCount: 2
Fore
SplineSet
276 352 m 0xf2
 183 352 123 293 123 208 c 0
 123 94 197 54 276 54 c 0
 359 54 430 91 430 200 c 0
 430 287 371 352 276 352 c 0xf2
275 671 m 24
 197 671 139 628 139 537 c 0
 139 461 192 413 276 413 c 0
 361 413 414 461 414 538 c 0xec
 414 629 353 671 275 671 c 24
49 200 m 0xf2
 49 334 156 406 276 406 c 0
 396 406 504 334 504 200 c 0
 504 55 388 -7 276 -7 c 0
 164 -7 49 55 49 200 c 0xf2
66 538 m 0xec
 66 675 164 732 276 732 c 0
 388 732 487 675 487 538 c 0
 487 426 388 359 276 359 c 0
 164 359 66 426 66 538 c 0xec
EndSplineSet
Validated: 5
EndChar

StartChar: nine
Encoding: 57 57 86
Width: 571
VWidth: 1048
Flags: W
HStem: -8 21G<174.186 218.5> 246 62<187.141 361.323> 671 61<188.598 361.421>
VStem: 49 74<376.137 596.447> 426 72<376.847 600.255>
LayerCount: 2
Fore
SplineSet
274 308 m 0
 378 308 426 374 426 477 c 0
 426 599 387 671 274 671 c 0
 160 671 123 589 123 486 c 0
 123 381 163 308 274 308 c 0
265 246 m 0
 125 246 49 339 49 486 c 0
 49 617 130 732 274 732 c 0
 435 732 498 610 498 479 c 0
 498 391 496 275 391 141 c 4
 337 72 254 20 183 -8 c 1
 157 51 l 1
 225 83 277 110 318 155 c 4
 362 203 394 254 407 309 c 1
 366 252 312 246 265 246 c 0
EndSplineSet
Validated: 1
EndChar

StartChar: colon
Encoding: 58 58 87
Width: 313
VWidth: 1048
Flags: W
HStem: -8 121<108.453 204.14> 413 121<108.453 204.14>
VStem: 96 121<4.83948 99.7768 425.839 520.777>
LayerCount: 2
Fore
SplineSet
96 473 m 4
 96 506 119 534 156 534 c 4
 193 534 217 506 217 473 c 4
 217 440 193 413 156 413 c 4
 119 413 96 440 96 473 c 4
96 52 m 0
 96 85 119 113 156 113 c 0
 193 113 217 85 217 52 c 0
 217 19 193 -8 156 -8 c 0
 119 -8 96 19 96 52 c 0
EndSplineSet
Validated: 1
EndChar

StartChar: semicolon
Encoding: 59 59 88
Width: 368
VWidth: 1048
Flags: W
HStem: -197 53<99.4836 119.789> -8 121<131.453 184.116> 423 121<131.453 227.14>
VStem: 119 121<435.839 530.777> 205 35<19 42.1632>
LayerCount: 2
Fore
SplineSet
179 113 m 5xe8
 238 113 267 65 267 11 c 5
 267 -90 173 -179 103 -197 c 5
 77 -144 l 5
 144 -124 205 -50 205 16 c 5
 185 89 l 5
 179 113 l 5xe8
119 483 m 0xf0
 119 516 142 544 179 544 c 0
 216 544 240 516 240 483 c 0
 240 450 216 423 179 423 c 0
 142 423 119 450 119 483 c 0xf0
119 52 m 4
 119 85 142 113 179 113 c 4
 216 113 240 85 240 52 c 4xe8
 240 19 216 -8 179 -8 c 4
 142 -8 119 19 119 52 c 4
EndSplineSet
Validated: 5
EndChar

StartChar: less
Encoding: 60 60 89
Width: 622
VWidth: 1048
Flags: W
LayerCount: 2
Fore
SplineSet
77 328 m 5
 493 504 l 5
 521 442 l 5
 77 258 l 5
 77 328 l 5
77 299 m 5
 521 115 l 5
 493 53 l 5
 77 229 l 5
 77 299 l 5
EndSplineSet
Validated: 5
EndChar

StartChar: equal
Encoding: 61 61 90
Width: 597
VWidth: 1048
Flags: W
HStem: 156 65<77 497> 352 66<77 497>
LayerCount: 2
Fore
SplineSet
77 418 m 5
 497 418 l 5
 497 352 l 5
 77 352 l 5
 77 418 l 5
77 221 m 5
 497 221 l 5
 497 156 l 5
 77 156 l 5
 77 221 l 5
EndSplineSet
Validated: 1
EndChar

StartChar: greater
Encoding: 62 62 91
Width: 622
VWidth: 1048
Flags: W
LayerCount: 2
Fore
SplineSet
521 328 m 5
 521 258 l 5
 77 442 l 5
 105 504 l 5
 521 328 l 5
521 299 m 5
 521 229 l 5
 105 53 l 5
 77 115 l 5
 521 299 l 5
EndSplineSet
Validated: 5
EndChar

StartChar: question
Encoding: 63 63 92
Width: 603
VWidth: 1048
Flags: W
HStem: -8 121<242.453 338.14> 668 64<187.531 372.056>
VStem: 230 121<4.83948 99.7768> 429 74<443.431 613.883>
LayerCount: 2
Fore
SplineSet
278 732 m 1
 407 732 503 659 503 536 c 1
 503 395 406 328 282 315 c 1
 312 190 l 1
 249 182 l 1
 218 303 l 1
 222 373 l 1
 372 373 429 427 429 536 c 1
 429 630 362 668 278 668 c 1
 218 668 167 643 122 594 c 1
 77 640 l 1
 122 684 183 732 278 732 c 1
230 52 m 0
 230 85 253 113 290 113 c 0
 327 113 351 85 351 52 c 0
 351 19 327 -8 290 -8 c 0
 253 -8 230 19 230 52 c 0
EndSplineSet
Validated: 1
EndChar

StartChar: at
Encoding: 64 64 93
Width: 649
VWidth: 1048
Flags: W
HStem: -8 61<260.36 437.171> 196 61<353.996 452.755> 505 59<355.561 460.432> 672 61<251.224 406.276>
VStem: 77 74<188.739 533.854> 259 74<276.856 481.772> 474 74<277.88 490.727>
LayerCount: 2
Fore
SplineSet
404 505 m 1
 344 505 333 448 333 369 c 5
 333 297 349 257 407 257 c 5
 452 257 474 296 474 362 c 5
 474 465 l 1
 458 493 434 505 404 505 c 1
548 382 m 5
 548 262 491 196 403 196 c 5
 310 196 259 250 259 373 c 5
 259 472 285 564 399 564 c 1
 427 564 455 555 474 530 c 1
 462 621 409 672 327 672 c 1
 225 672 151 577 151 365 c 1
 151 164 207 53 351 53 c 5
 397 53 458 74 495 122 c 1
 546 78 l 1
 495 19 429 -8 348 -8 c 5
 183 -8 77 102 77 365 c 5
 77 644 197 732 327 733 c 1
 457 732 548 642 548 486 c 1
 548 382 l 5
EndSplineSet
Validated: 1
EndChar

StartChar: gravecomb
Encoding: 768 768 95
Width: 0
VWidth: 1048
Flags: W
HStem: 745 185
VStem: -123 247
AnchorPoint: "AccentCenter" 4 840 mark 0
LayerCount: 2
Fore
SplineSet
90 745 m 5
 -123 869 l 5
 -80 930 l 5
 124 794 l 5
 90 745 l 5
EndSplineSet
Validated: 1
EndChar

StartChar: acutecomb
Encoding: 769 769 96
Width: 0
VWidth: 1048
Flags: W
HStem: 745 185
VStem: -123 247
AnchorPoint: "AccentCenter" 6 840 mark 0
LayerCount: 2
Fore
SplineSet
-90 745 m 1
 -123 794 l 1
 80 930 l 1
 124 869 l 1
 -90 745 l 1
EndSplineSet
Validated: 1
EndChar

StartChar: uni0302
Encoding: 770 770 97
Width: 0
VWidth: 1048
Flags: W
HStem: 745 185
VStem: -164 328
AnchorPoint: "AccentCenter" 0 840 mark 0
LayerCount: 2
Fore
SplineSet
-164 794 m 29
 -33 930 l 5
 33 930 l 29
 164 794 l 29
 123 745 l 29
 0 865 l 29
 -123 745 l 29
 -164 794 l 29
EndSplineSet
Validated: 1
EndChar

StartChar: tildecomb
Encoding: 771 771 98
Width: 0
VWidth: 1048
Flags: W
HStem: 768 21G<-179.5 -154> 777 65<31.7338 126.19> 847 66<-125.06 -16.4801>
AnchorPoint: "AccentCenter" 0 840 mark 0
LayerCount: 2
Fore
SplineSet
-205 808 m 5xa0
 -205 808 -181 913 -63 913 c 4
 -2 913 33 842 84 842 c 4
 142 842 145 919 145 919 c 5
 205 878 l 5
 205 878 179 777 82 777 c 4x60
 7 777 -12 847 -70 847 c 4
 -145 847 -154 768 -154 768 c 5
 -205 808 l 5xa0
EndSplineSet
Validated: 1
EndChar

StartChar: uni0304
Encoding: 772 772 99
Width: 0
VWidth: 1048
Flags: W
HStem: 805 104<-147.146 -61.5153 61.5153 147.146>
VStem: -157 105<814.515 899.485> 52 105<814.515 899.485>
AnchorPoint: "AccentCenter" 0 860 mark 0
LayerCount: 2
Fore
SplineSet
52 857 m 0
 52 886 75 909 104 909 c 0
 133 909 157 886 157 857 c 0
 157 828 133 805 104 805 c 0
 75 805 52 828 52 857 c 0
-157 857 m 0
 -157 886 -133 909 -104 909 c 0
 -75 909 -52 886 -52 857 c 0
 -52 828 -75 805 -104 805 c 0
 -133 805 -157 828 -157 857 c 0
EndSplineSet
Validated: 1
EndChar

StartChar: uni030A
Encoding: 778 778 100
Width: 0
VWidth: 1048
Flags: W
HStem: 743 49<-40.634 40.634> 888 49<-40.634 40.634>
VStem: -97 49<798.991 881.009> 48 49<798.991 881.009>
AnchorPoint: "Ring" 0 840 mark 0
LayerCount: 2
Fore
SplineSet
-48 840 m 4
 -48 811 -27 792 0 792 c 4
 27 792 48 811 48 840 c 4
 48 869 27 888 0 888 c 4
 -27 888 -48 869 -48 840 c 4
-97 840 m 4
 -97 896 -54 937 0 937 c 4
 54 937 97 896 97 840 c 4
 97 784 54 743 0 743 c 4
 -54 743 -97 784 -97 840 c 4
EndSplineSet
Validated: 1
EndChar

StartChar: uni0308
Encoding: 776 776 101
Width: 0
VWidth: 1048
Flags: W
HStem: 805 104<-147.146 -61.5153 61.5153 147.146>
VStem: -157 105<814.515 899.485> 52 105<814.515 899.485>
AnchorPoint: "AccentCenter" 0 860 mark 0
LayerCount: 2
Fore
SplineSet
52 857 m 0
 52 886 75 909 104 909 c 0
 133 909 157 886 157 857 c 0
 157 828 133 805 104 805 c 0
 75 805 52 828 52 857 c 0
-157 857 m 0
 -157 886 -133 909 -104 909 c 0
 -75 909 -52 886 -52 857 c 0
 -52 828 -75 805 -104 805 c 0
 -133 805 -157 828 -157 857 c 0
EndSplineSet
Validated: 1
EndChar

StartChar: dotlessi
Encoding: 305 305 116
Width: 248
VWidth: 1048
Flags: W
HStem: 0 21G<86 160> 499 20G<86 160>
VStem: 86 74<0 519>
AnchorPoint: "AccentCenter" 120 686 basechar 0
LayerCount: 2
Fore
SplineSet
86 0 m 1
 86 519 l 1
 160 519 l 1
 160 0 l 1
 86 0 l 1
EndSplineSet
Validated: 1
EndChar

